<svg width="21" height="21" viewBox="0 0 21 21" fill="none" xmlns="http://www.w3.org/2000/svg">
<path fill-rule="evenodd" clip-rule="evenodd" d="M14.2996 3.73909C12.5049 3.73909 11.0457 5.19078 11.0457 6.98689C11.0457 7.79863 11.3438 8.54002 11.8361 9.10885C10.0075 10.014 8.74923 11.8954 8.74881 14.0724V15.3811C8.74881 15.9101 9.17764 16.3389 9.70663 16.3389H18.891C19.42 16.3389 19.8488 15.9101 19.8488 15.3811V14.0725C19.8488 12.603 19.2635 11.1942 18.2223 10.1558C17.7917 9.72629 17.2976 9.3747 16.762 9.11008C17.255 8.54109 17.5535 7.79922 17.5535 6.98689C17.5535 5.19078 16.0943 3.73909 14.2996 3.73909ZM12.9613 6.98689C12.9613 6.25356 13.5581 5.65473 14.2996 5.65473C15.0411 5.65473 15.6379 6.25356 15.6379 6.98689C15.6379 7.72022 15.0411 8.31905 14.2996 8.31905C13.5581 8.31905 12.9613 7.72022 12.9613 6.98689ZM10.6645 14.0725C10.6649 12.0747 12.2894 10.4509 14.2988 10.4504C15.2635 10.4504 16.1883 10.8327 16.8696 11.5122C17.5509 12.1917 17.9332 13.1127 17.9332 14.0725V14.4233H10.6645V14.0725Z" fill="white"/>
<path d="M4.03658 6.49607C3.80147 6.49607 3.61088 6.68666 3.61088 6.92177V9.42126H1.08279C0.847684 9.42126 0.657093 9.61185 0.657093 9.84695V10.9895C0.657093 11.2246 0.847684 11.4152 1.08279 11.4152H3.61088V13.9216C3.61088 14.1567 3.80147 14.3473 4.03658 14.3473H5.12034C5.35545 14.3473 5.54604 14.1567 5.54604 13.9216V11.4152H8.08107C8.31617 11.4152 8.50676 11.2246 8.50676 10.9895V9.84695C8.50676 9.61185 8.31617 9.42126 8.08107 9.42126H5.54604V6.92177C5.54604 6.68666 5.35545 6.49607 5.12034 6.49607H4.03658Z" fill="white"/>
</svg>
