<svg width="21" height="21" viewBox="0 0 21 21" fill="none" xmlns="http://www.w3.org/2000/svg">
<path fill-rule="evenodd" clip-rule="evenodd" d="M14.2996 3.73909C12.5049 3.73909 11.0457 5.19078 11.0457 6.98689C11.0457 7.79863 11.3438 8.54002 11.8361 9.10885C10.0075 10.014 8.74923 11.8954 8.74882 14.0724V15.3811C8.74882 15.9101 9.17765 16.3389 9.70664 16.3389H18.891C19.42 16.3389 19.8488 15.9101 19.8488 15.3811V14.0725C19.8488 12.603 19.2635 11.1942 18.2224 10.1558C17.7917 9.72629 17.2976 9.3747 16.762 9.11008C17.255 8.54109 17.5535 7.79922 17.5535 6.98689C17.5535 5.19078 16.0943 3.73909 14.2996 3.73909ZM12.9613 6.98689C12.9613 6.25356 13.5581 5.65473 14.2996 5.65473C15.0411 5.65473 15.6379 6.25356 15.6379 6.98689C15.6379 7.72022 15.0411 8.31905 14.2996 8.31905C13.5581 8.31905 12.9613 7.72022 12.9613 6.98689ZM10.6645 14.0725C10.6649 12.0747 12.2894 10.4509 14.2988 10.4504C15.2635 10.4504 16.1883 10.8327 16.8696 11.5122C17.5509 12.1917 17.9332 13.1127 17.9332 14.0725V14.4233H10.6645V14.0725Z" fill="white"/>
<path d="M8.50404 6.61523C8.3378 6.44899 8.06826 6.44899 7.90202 6.61523L4.02335 10.4939L2.23572 8.70628C2.06947 8.54003 1.79993 8.54003 1.63369 8.70628L0.825779 9.51419C0.659534 9.68043 0.659534 9.94997 0.825779 10.1162L3.68076 12.9712C3.84701 13.1374 4.11654 13.1374 4.28279 12.9712L9.27038 7.9836C9.43663 7.81736 9.43663 7.54782 9.27038 7.38157L8.50404 6.61523Z" fill="white"/>
</svg>
