<svg width="109" height="109" viewBox="0 0 109 109" fill="none" xmlns="http://www.w3.org/2000/svg">
<path d="M52.3695 109C22.9546 109 0 85.8788 0 57.2525C0 26.149 26.116 0 57.5927 0C87.0076 0 109 22.2955 109 47.8939C109 71.7033 94.1551 82.851 81.0971 82.851C71.7503 82.851 66.2522 78.447 64.053 71.9785C59.1047 78.447 51.9571 82.7134 43.8474 82.7134C29.9647 82.7134 20.6179 72.529 20.6179 57.803C20.6179 38.9482 35.6003 23.3965 51.5448 23.3965C60.4792 23.3965 66.3897 27.8005 69.5511 33.3056L71.2005 25.3232L87.8323 26.5619C83.2964 50.096 80.6847 60.1427 80.6847 65.0972C80.6847 69.9141 83.7087 72.6667 88.2446 72.6667C95.5296 72.6667 103.227 64.822 103.227 47.8939C103.227 24.3599 83.7087 5.50505 57.3178 5.50505C28.7276 5.50505 5.63556 29.0391 5.63556 57.1149C5.63556 82.9886 25.9786 103.633 52.7818 103.633C63.9155 103.633 72.7125 100.88 82.1967 95.2374L84.9458 99.5038C74.9117 105.835 64.7402 109 52.3695 109ZM49.6204 68.8131C58.6923 68.8131 65.1526 61.1061 66.1148 50.7841C66.802 42.6641 62.8159 37.2967 55.256 37.2967C45.3594 37.2967 37.9369 46.3801 37.9369 56.4268C37.9369 64.1338 42.6103 68.8131 49.6204 68.8131Z" fill="white"/>
</svg>
