<svg width="16" height="16" viewBox="0 0 16 16" fill="none" xmlns="http://www.w3.org/2000/svg">
<path id="Feed icon" fill-rule="evenodd" clip-rule="evenodd" d="M2.66667 2.66667C1.19391 2.66667 0 1.47276 0 0H1.33333C1.33333 0.73638 1.93029 1.33333 2.66667 1.33333H13.3333C14.0697 1.33333 14.6667 0.73638 14.6667 0H16C16 1.47276 14.8061 2.66667 13.3333 2.66667H2.66667ZM13.3333 5.33333H2.66667C1.93029 5.33333 1.33333 5.93029 1.33333 6.66667V9.33333C1.33333 10.0697 1.93029 10.6667 2.66667 10.6667H13.3333C14.0697 10.6667 14.6667 10.0697 14.6667 9.33333V6.66667C14.6667 5.93029 14.0697 5.33333 13.3333 5.33333ZM2.66667 4C1.19391 4 0 5.19391 0 6.66667V9.33333C0 10.8061 1.19391 12 2.66667 12H13.3333C14.8061 12 16 10.8061 16 9.33333V6.66667C16 5.19391 14.8061 4 13.3333 4H2.66667ZM2.66667 14.6667H13.3333C14.0697 14.6667 14.6667 15.2636 14.6667 16V16.0001H16V16C16 14.5272 14.8061 13.3333 13.3333 13.3333H2.66667C1.19391 13.3333 0 14.5272 0 16V16.0001H1.33333V16C1.33333 15.2636 1.93029 14.6667 2.66667 14.6667Z" fill="white"/>
</svg>
