<svg width="127" height="127" viewBox="0 0 127 127" fill="none" xmlns="http://www.w3.org/2000/svg">
<g filter="url(#filter0_i_7967_1046)">
<path d="M118.383 8.56127L118.405 8.58357C129.825 20.0703 129.825 38.6232 118.405 50.1099L118.394 50.1206L94.4246 74.0904L94.4145 74.1005C86.1468 82.3225 73.8081 84.8951 62.9437 80.6623C59.1656 79.1952 55.7355 76.9554 52.8728 74.0863C50.8578 72.0668 50.8615 68.7962 52.8811 66.7812C54.9006 64.7662 58.1712 64.7699 60.1861 66.7894C62.0335 68.641 64.2472 70.0863 66.6855 71.0328L66.6919 71.0353C73.7452 73.7842 81.7557 72.1157 87.1249 66.7799L111.083 42.8216C118.489 35.3678 118.491 23.335 111.09 15.8784C103.632 8.4799 91.6013 8.48179 84.1457 15.8841L63.6063 36.4235C61.589 38.4408 58.3184 38.4408 56.3012 36.4235C54.2839 34.4063 54.284 31.1357 56.3012 29.1185L76.8468 8.57289L76.8584 8.56128C88.3464 -2.85376 106.895 -2.85376 118.383 8.56127Z" fill="#160E24" fill-opacity="0.7"/>
<path d="M46.2566 0.211172C49.1095 0.21117 51.4221 2.52383 51.4221 5.37665V19.0737C51.4221 21.9265 49.1095 24.2392 46.2566 24.2392C43.4038 24.2392 41.0912 21.9265 41.0912 19.0737L41.0912 5.37665C41.0912 2.52383 43.4038 0.211171 46.2566 0.211172Z" fill="#160E24" fill-opacity="0.7"/>
<path d="M22.5151 15.4219C20.4979 13.4047 17.2273 13.4047 15.21 15.4219C13.1928 17.4391 13.1928 20.7097 15.21 22.727L28.9071 36.424C30.9243 38.4413 34.1949 38.4413 36.2122 36.424C38.2294 34.4068 38.2294 31.1362 36.2122 29.1189L22.5151 15.4219Z" fill="#160E24" fill-opacity="0.7"/>
<path d="M18.8625 51.6351C21.7153 51.6351 24.028 49.3225 24.028 46.4697C24.028 43.6168 21.7153 41.3042 18.8625 41.3042H5.16548C2.31266 41.3042 -5.82576e-07 43.6168 0 46.4697C-4.07807e-06 49.3225 2.31266 51.6351 5.16548 51.6351H18.8625Z" fill="#160E24" fill-opacity="0.7"/>
<path d="M97.8488 90.7564C95.8316 88.7392 92.561 88.7392 90.5438 90.7564C88.5265 92.7737 88.5265 96.0443 90.5438 98.0615L104.241 111.759C106.258 113.776 109.529 113.776 111.546 111.759C113.563 109.741 113.563 106.471 111.546 104.453L97.8488 90.7564Z" fill="#160E24" fill-opacity="0.7"/>
<path d="M80.4993 102.938C83.3521 102.938 85.6648 105.251 85.6648 108.103V121.8C85.6648 124.653 83.3521 126.966 80.4993 126.966C77.6465 126.966 75.3338 124.653 75.3338 121.8L75.3338 108.103C75.3338 105.251 77.6465 102.938 80.4993 102.938Z" fill="#160E24" fill-opacity="0.7"/>
<path d="M121.59 85.8779C124.443 85.8779 126.756 83.5653 126.756 80.7125C126.756 77.8597 124.443 75.547 121.59 75.547L107.893 75.547C105.041 75.547 102.728 77.8597 102.728 80.7125C102.728 83.5653 105.04 85.8779 107.893 85.8779H121.59Z" fill="#160E24" fill-opacity="0.7"/>
<path d="M66.5856 60.4066C68.6093 62.4174 71.8799 62.407 73.8907 60.3833C75.9015 58.3597 75.8911 55.0891 73.8674 53.0783C62.3795 41.6633 43.831 41.6633 32.343 53.0783L32.3314 53.0899L11.7858 73.6355L11.7752 73.6461C0.355317 85.1329 0.355315 103.686 11.7752 115.172L11.7955 115.193C23.281 126.618 41.8383 126.618 53.3238 115.193L73.8791 94.6376C75.8963 92.6204 75.8963 89.3497 73.8791 87.3325C71.8618 85.3153 68.5912 85.3153 66.574 87.3325L46.034 107.873C38.5817 115.281 26.5467 115.283 19.0918 107.879C11.6895 100.423 11.6911 88.3892 19.0966 80.9349L39.6303 60.4011C47.0896 52.9951 59.1286 52.9969 66.5856 60.4066Z" fill="#160E24" fill-opacity="0.7"/>
</g>
<defs>
<filter id="filter0_i_7967_1046" x="0" y="0" width="126.97" height="130.967" filterUnits="userSpaceOnUse" color-interpolation-filters="sRGB">
<feFlood flood-opacity="0" result="BackgroundImageFix"/>
<feBlend mode="normal" in="SourceGraphic" in2="BackgroundImageFix" result="shape"/>
<feColorMatrix in="SourceAlpha" type="matrix" values="0 0 0 0 0 0 0 0 0 0 0 0 0 0 0 0 0 0 127 0" result="hardAlpha"/>
<feOffset dy="4"/>
<feGaussianBlur stdDeviation="2"/>
<feComposite in2="hardAlpha" operator="arithmetic" k2="-1" k3="1"/>
<feColorMatrix type="matrix" values="0 0 0 0 0 0 0 0 0 0 0 0 0 0 0 0 0 0 0.25 0"/>
<feBlend mode="normal" in2="shape" result="effect1_innerShadow_7967_1046"/>
</filter>
</defs>
</svg>
