<?xml version="1.0" encoding="UTF-8" standalone="no"?>
<svg
   width="21"
   height="14"
   viewBox="0 0 21 14"
   fill="none"
   version="1.1"
   id="svg4"
   sodipodi:docname="Copy icon.svg"
   inkscape:version="1.3.2 (091e20e, 2023-11-25)"
   xmlns:inkscape="http://www.inkscape.org/namespaces/inkscape"
   xmlns:sodipodi="http://sodipodi.sourceforge.net/DTD/sodipodi-0.dtd"
   xmlns="http://www.w3.org/2000/svg"
   xmlns:svg="http://www.w3.org/2000/svg">
  <sodipodi:namedview
     id="namedview4"
     pagecolor="#ff0000"
     bordercolor="#000000"
     borderopacity="0.25"
     inkscape:showpageshadow="2"
     inkscape:pageopacity="0.0"
     inkscape:pagecheckerboard="0"
     inkscape:deskcolor="#d1d1d1"
     showguides="true"
     inkscape:zoom="41.731217"
     inkscape:cx="6.7934755"
     inkscape:cy="10.483758"
     inkscape:window-width="1824"
     inkscape:window-height="1260"
     inkscape:window-x="0"
     inkscape:window-y="25"
     inkscape:window-maximized="0"
     inkscape:current-layer="svg4">
    <sodipodi:guide
       position="11.676485,15.420362"
       orientation="1,0"
       id="guide20"
       inkscape:locked="false" />
  </sodipodi:namedview>
  <g
     id="Copy icon"
     filter="url(#filter0_d_6399_25906)"
     clip-path="none"
     transform="matrix(0.86436777,0,0,0.87240085,2.0441561,-1.2452988)">
    <path
       d="M 4.56334,3.56334 C 4.69121,3.43548 4.86463,3.36364 5.04546,3.36364 h 6.13644 c 0.1808,0 0.3542,0.07184 0.4821,0.1997 0.1278,0.12787 0.1997,0.30129 0.1997,0.48212 v 0.68182 c 0,0.37656 0.3052,0.68183 0.6818,0.68183 0.3766,0 0.6818,-0.30527 0.6818,-0.68183 V 4.04546 C 13.2273,3.50297 13.0118,2.9827 12.6282,2.5991 12.2446,2.2155 11.7243,2 11.1819,2 H 5.04546 C 4.50297,2 3.9827,2.2155 3.5991,2.5991 3.2155,2.9827 3,3.50297 3,4.04546 v 6.13644 c 0,0.5424 0.2155,1.0627 0.5991,1.4463 0.3836,0.3836 0.90387,0.5991 1.44636,0.5991 h 0.68182 c 0.37656,0 0.68183,-0.3052 0.68183,-0.6818 0,-0.3766 -0.30527,-0.6818 -0.68183,-0.6818 H 5.04546 c -0.18083,0 -0.35425,-0.0719 -0.48212,-0.1997 -0.12786,-0.1279 -0.1997,-0.3013 -0.1997,-0.4821 V 4.04546 c 0,-0.18083 0.07184,-0.35425 0.1997,-0.48212 z"
       fill="#ffffff"
       id="path1" />
    <path
       fill-rule="evenodd"
       clip-rule="evenodd"
       d="m 9.81824,6.77268 c -1.12967,0 -2.04546,0.91579 -2.04546,2.04547 V 14.9545 C 7.77278,16.0842 8.68857,17 9.81824,17 h 6.13636 c 1.1297,0 2.0455,-0.9158 2.0455,-2.0455 V 8.81815 c 0,-1.12968 -0.9158,-2.04547 -2.0455,-2.04547 z M 9.13642,8.81815 c 0,-0.37656 0.30527,-0.68183 0.68182,-0.68183 h 6.13636 c 0.3766,0 0.6819,0.30527 0.6819,0.68183 v 6.13635 c 0,0.3766 -0.3053,0.6819 -0.6819,0.6819 H 9.81824 c -0.37655,0 -0.68182,-0.3053 -0.68182,-0.6819 z"
       fill="#ffffff"
       id="path2" />
  </g>
  <defs
     id="defs4">
    <filter
       id="filter0_d_6399_25906"
       x="0.76363701"
       y="0.881818"
       width="19.472799"
       height="19.4727"
       filterUnits="userSpaceOnUse"
       color-interpolation-filters="sRGB">
      <feFlood
         flood-opacity="0"
         result="BackgroundImageFix"
         id="feFlood2" />
      <feColorMatrix
         in="SourceAlpha"
         type="matrix"
         values="0 0 0 0 0 0 0 0 0 0 0 0 0 0 0 0 0 0 127 0"
         result="hardAlpha"
         id="feColorMatrix2" />
      <feOffset
         dy="1.11818"
         id="feOffset2" />
      <feGaussianBlur
         stdDeviation="1.11818"
         id="feGaussianBlur2" />
      <feComposite
         in2="hardAlpha"
         operator="out"
         id="feComposite2" />
      <feColorMatrix
         type="matrix"
         values="0 0 0 0 0 0 0 0 0 0 0 0 0 0 0 0 0 0 0.15 0"
         id="feColorMatrix3" />
      <feBlend
         mode="multiply"
         in2="BackgroundImageFix"
         result="effect1_dropShadow_6399_25906"
         id="feBlend3" />
      <feBlend
         mode="normal"
         in="SourceGraphic"
         in2="effect1_dropShadow_6399_25906"
         result="shape"
         id="feBlend4" />
    </filter>
  </defs>
</svg>
