<svg width="21" height="14" viewBox="0 0 21 14" fill="none" xmlns="http://www.w3.org/2000/svg">
<path fill-rule="evenodd" clip-rule="evenodd" d="M14.2998 0.739258C12.5051 0.739258 11.0459 2.19095 11.0459 3.98706C11.0459 4.7988 11.344 5.54019 11.8363 6.10902C10.0077 7.01417 8.74944 8.89557 8.74902 11.0726V12.3813C8.74902 12.9103 9.17785 13.3391 9.70684 13.3391H18.8912C19.4202 13.3391 19.849 12.9103 19.849 12.3813V11.0727C19.849 9.60317 19.2637 8.19437 18.2225 7.15597C17.7919 6.72646 17.2978 6.37487 16.7622 6.11025C17.2552 5.54126 17.5537 4.79939 17.5537 3.98706C17.5537 2.19095 16.0945 0.739258 14.2998 0.739258ZM12.9615 3.98706C12.9615 3.25373 13.5583 2.6549 14.2998 2.6549C15.0413 2.6549 15.6381 3.25373 15.6381 3.98706C15.6381 4.72039 15.0413 5.31922 14.2998 5.31922C13.5583 5.31922 12.9615 4.72039 12.9615 3.98706ZM10.6647 11.0727C10.6651 9.07487 12.2896 7.45107 14.299 7.45057C15.2637 7.45057 16.1885 7.83287 16.8698 8.51237C17.5511 9.19187 17.9334 10.1129 17.9334 11.0727V11.4235H10.6647V11.0727Z" fill="white"/>
<path d="M4.03671 3.49609C3.8016 3.49609 3.61101 3.68668 3.61101 3.92179V6.42128H1.08292C0.847818 6.42128 0.657227 6.61187 0.657227 6.84697V7.98952C0.657227 8.22462 0.847818 8.41522 1.08292 8.41522H3.61101V10.9216C3.61101 11.1567 3.8016 11.3473 4.03671 11.3473H5.12047C5.35558 11.3473 5.54617 11.1567 5.54617 10.9216V8.41522H8.0812C8.3163 8.41522 8.50689 8.22462 8.50689 7.98952V6.84697C8.50689 6.61187 8.3163 6.42128 8.0812 6.42128H5.54617V3.92179C5.54617 3.68668 5.35558 3.49609 5.12047 3.49609H4.03671Z" fill="white"/>
</svg>
