<svg width="16" height="16" viewBox="0 0 16 16" fill="none" xmlns="http://www.w3.org/2000/svg">
<path id="Posts icon" fill-rule="evenodd" clip-rule="evenodd" d="M2.66667 1.33333H13.3333C14.0697 1.33333 14.6667 1.93029 14.6667 2.66667V6.5H1.33333V2.66667C1.33333 1.93029 1.93029 1.33333 2.66667 1.33333ZM1.33333 7.5V13.3333C1.33333 14.0697 1.93029 14.6667 2.66667 14.6667H13.3333C14.0697 14.6667 14.6667 14.0697 14.6667 13.3333V7.5H1.33333ZM0 2.66667C0 1.19391 1.19391 0 2.66667 0H13.3333C14.8061 0 16 1.19391 16 2.66667V13.3333C16 14.8061 14.8061 16 13.3333 16H2.66667C1.19391 16 0 14.8061 0 13.3333V2.66667ZM5.75 4C5.75 3.58579 6.08579 3.25 6.5 3.25H11C11.4142 3.25 11.75 3.58579 11.75 4C11.75 4.41421 11.4142 4.75 11 4.75H6.5C6.08579 4.75 5.75 4.41421 5.75 4ZM3.5 9.25C3.08579 9.25 2.75 9.58579 2.75 10C2.75 10.4142 3.08579 10.75 3.5 10.75H9.5C9.91421 10.75 10.25 10.4142 10.25 10C10.25 9.58579 9.91421 9.25 9.5 9.25H3.5ZM2.75 12.5C2.75 12.0858 3.08579 11.75 3.5 11.75H12.5C12.9142 11.75 13.25 12.0858 13.25 12.5C13.25 12.9142 12.9142 13.25 12.5 13.25H3.5C3.08579 13.25 2.75 12.9142 2.75 12.5ZM3.5 5C4.05228 5 4.5 4.55228 4.5 4C4.5 3.44772 4.05228 3 3.5 3C2.94772 3 2.5 3.44772 2.5 4C2.5 4.55228 2.94772 5 3.5 5Z" fill="#9379BF"/>
</svg>
